<svg id="Group_40141" data-name="Group 40141" xmlns="http://www.w3.org/2000/svg" width="24" height="24" viewBox="0 0 24 24">
  <g id="Path_82670" data-name="Path 82670" fill="#fff" opacity="0">
    <path d="M 23.5 23.5 L 0.5 23.5 L 0.5 0.5 L 23.5 0.5 L 23.5 23.5 Z" stroke="none"/>
    <path d="M 1 1 L 1 23 L 23 23 L 23 1 L 1 1 M 0 0 L 24 0 L 24 24 L 0 24 L 0 0 Z" stroke="none" fill="#707070"/>
  </g>
  <g id="Icon_feather-mail" data-name="Icon feather-mail" transform="translate(2 4)">
    <path id="Path_82668" data-name="Path 82668" d="M4.919,6h15.35a1.924,1.924,0,0,1,1.919,1.919V19.431a1.924,1.924,0,0,1-1.919,1.919H4.919A1.924,1.924,0,0,1,3,19.431V7.919A1.924,1.924,0,0,1,4.919,6Z" transform="translate(-3 -6)" fill="none" stroke="#878a99" stroke-linecap="round" stroke-linejoin="round" stroke-width="1.3"/>
    <path id="Path_82669" data-name="Path 82669" d="M22.188,9l-9.594,6.716L3,9" transform="translate(-3 -7.081)" fill="none" stroke="#878a99" stroke-linecap="round" stroke-linejoin="round" stroke-width="1.3"/>
  </g>
</svg>
