<svg xmlns="http://www.w3.org/2000/svg" xmlns:xlink="http://www.w3.org/1999/xlink" width="24" height="24" viewBox="0 0 24 24">
  <defs>
    <clipPath id="clip-path">
      <rect id="Rectangle_3518" data-name="Rectangle 3518" width="19.185" height="15.368" fill="#5e84c3"/>
    </clipPath>
  </defs>
  <g id="Group_14539" data-name="Group 14539" transform="translate(-62 -407)">
    <rect id="Rectangle_3506" data-name="Rectangle 3506" width="24" height="24" rx="12" transform="translate(62 407)" fill="#70e0fe" opacity="0"/>
    <g id="Group_14538" data-name="Group 14538" transform="translate(64 411)">
      <g id="Group_14537" data-name="Group 14537" clip-path="url(#clip-path)">
        <path id="Path_42210" data-name="Path 42210" d="M0,133.3H5.523a7.8,7.8,0,0,0-5.469-5.512,7.629,7.629,0,0,1,9.522,7.431H0Z" transform="translate(0 -119.846)" fill="#5e84c3"/>
        <path id="Path_42211" data-name="Path 42211" d="M178.694,135.22c-.039-.438-.071-.863-.117-1.286a8.313,8.313,0,0,0-.669-2.438.326.326,0,0,1,.03-.35,7.67,7.67,0,0,1,5.534-3.552,7.205,7.205,0,0,1,2.88.2,7.814,7.814,0,0,0-3.5,2.025,7.659,7.659,0,0,0-2,3.487h5.5v1.916Z" transform="translate(-167.167 -119.855)" fill="#5e84c3"/>
        <path id="Path_42212" data-name="Path 42212" d="M167.138,32.71c-.252.183-.509.359-.754.551a9.467,9.467,0,0,0-2.99,3.954.738.738,0,0,1-.376.408,9.459,9.459,0,0,0-3.08,2.547c-.037.047-.076.092-.117.141a7.261,7.261,0,0,1,1.756-4.9,7.5,7.5,0,0,1,5.562-2.7" transform="translate(-150.182 -30.742)" fill="#5e84c3"/>
        <path id="Path_42213" data-name="Path 42213" d="M78.573,7.8c-.387-.253-.752-.487-1.11-.731A.219.219,0,0,1,77.4,6.9,10.249,10.249,0,0,0,75.315.124C75.3.1,75.286.074,75.245,0c.136.058.231.095.321.138A8.125,8.125,0,0,1,79.69,4.492a.33.33,0,0,1,.018.246A9.776,9.776,0,0,0,78.573,7.8" transform="translate(-70.717)" fill="#5e84c3"/>
      </g>
    </g>
  </g>
</svg>
