<svg xmlns="http://www.w3.org/2000/svg" xmlns:xlink="http://www.w3.org/1999/xlink" width="75" height="72" viewBox="0 0 75 72">
  <defs>
    <clipPath id="clip-path">
      <rect id="Rectangle_3381" data-name="Rectangle 3381" width="51.514" height="56.17" fill="#5e84c3"/>
    </clipPath>
  </defs>
  <g id="Group_14476" data-name="Group 14476" transform="translate(-925 -846)">
    <g id="Group_14443" data-name="Group 14443" transform="translate(7 -46)">
      <g id="Group_14355" data-name="Group 14355" transform="translate(464 5)">
        <circle id="Ellipse_160" data-name="Ellipse 160" cx="34" cy="34" r="34" transform="translate(454 887)" fill="#f5f5f5"/>
      </g>
      <g id="Group_14370" data-name="Group 14370" transform="translate(-10)">
        <g id="Group_14363" data-name="Group 14363" transform="translate(-11 -394)">
          <g id="Rectangle_3382" data-name="Rectangle 3382" transform="translate(950 1294)" fill="#fff" stroke="#707070" stroke-width="1" opacity="0">
            <rect width="64" height="64" stroke="none"/>
            <rect x="0.5" y="0.5" width="63" height="63" fill="none"/>
          </g>
        </g>
        <g id="Group_14362" data-name="Group 14362" transform="translate(945 903.999)">
          <g id="Group_14361" data-name="Group 14361" clip-path="url(#clip-path)">
            <path id="Path_42153" data-name="Path 42153" d="M81.761,0a30.115,30.115,0,0,1,3.148.667c6.5,2.093,10.364,6.551,11.632,13.245.6,3.169-.24,6.115-1.556,8.967A56.621,56.621,0,0,1,88.505,33.4c-2.013,2.645-4.145,5.2-6.268,7.76a2.316,2.316,0,0,1-3.812,0A93.363,93.363,0,0,1,67.174,25.8a29.61,29.61,0,0,1-2.708-6.146,13.507,13.507,0,0,1,.576-9.115A16.184,16.184,0,0,1,78.051.143c.286-.05.572-.1.858-.143ZM80.307,25.731a9.356,9.356,0,1,0-9.324-9.746,9.365,9.365,0,0,0,9.324,9.746" transform="translate(-54.575)" fill="#5e84c3"/>
            <path id="Path_42154" data-name="Path 42154" d="M25.211,250.857q-11.749-5.868-23.5-11.731a2.776,2.776,0,0,1-1.584-1.571,2.35,2.35,0,0,1,1.315-2.911q3.522-1.769,7.051-3.525l6.15-3.071c.713.959,1.389,1.934,2.134,2.854q2.672,3.3,5.4,6.559a4.677,4.677,0,0,0,7.156.011q2.731-3.253,5.4-6.558c.745-.92,1.421-1.9,2.146-2.87l5.058,2.528Q46,232.6,50.068,234.64a2.328,2.328,0,0,1,1.352,2.8,2.481,2.481,0,0,1-1.41,1.581q-5.907,2.942-11.8,5.9-5.412,2.707-10.827,5.41c-.355.177-.714.349-1.071.523Z" transform="translate(0 -194.687)" fill="#5e84c3"/>
          </g>
        </g>
      </g>
    </g>
    <g id="Group_14462" data-name="Group 14462" transform="translate(-3 -46)">
      <g id="Group_14363-2" data-name="Group 14363" transform="translate(-11 -394)">
        <g id="Rectangle_3382-2" data-name="Rectangle 3382" transform="translate(950 1294)" fill="#fff" stroke="#707070" stroke-width="1" opacity="0">
          <rect width="64" height="64" stroke="none"/>
          <rect x="0.5" y="0.5" width="63" height="63" fill="none"/>
        </g>
      </g>
      <g id="Group_14362-2" data-name="Group 14362" transform="translate(945 903.999)">
        <g id="Group_14361-2" data-name="Group 14361" clip-path="url(#clip-path)">
          <path id="Path_42153-2" data-name="Path 42153" d="M81.761,0a30.115,30.115,0,0,1,3.148.667c6.5,2.093,10.364,6.551,11.632,13.245.6,3.169-.24,6.115-1.556,8.967A56.621,56.621,0,0,1,88.505,33.4c-2.013,2.645-4.145,5.2-6.268,7.76a2.316,2.316,0,0,1-3.812,0A93.363,93.363,0,0,1,67.174,25.8a29.61,29.61,0,0,1-2.708-6.146,13.507,13.507,0,0,1,.576-9.115A16.184,16.184,0,0,1,78.051.143c.286-.05.572-.1.858-.143ZM80.307,25.731a9.356,9.356,0,1,0-9.324-9.746,9.365,9.365,0,0,0,9.324,9.746" transform="translate(-54.575)" fill="#5e84c3"/>
          <path id="Path_42154-2" data-name="Path 42154" d="M25.211,250.857q-11.749-5.868-23.5-11.731a2.776,2.776,0,0,1-1.584-1.571,2.35,2.35,0,0,1,1.315-2.911q3.522-1.769,7.051-3.525l6.15-3.071c.713.959,1.389,1.934,2.134,2.854q2.672,3.3,5.4,6.559a4.677,4.677,0,0,0,7.156.011q2.731-3.253,5.4-6.558c.745-.92,1.421-1.9,2.146-2.87l5.058,2.528Q46,232.6,50.068,234.64a2.328,2.328,0,0,1,1.352,2.8,2.481,2.481,0,0,1-1.41,1.581q-5.907,2.942-11.8,5.9-5.412,2.707-10.827,5.41c-.355.177-.714.349-1.071.523Z" transform="translate(0 -194.687)" fill="#5e84c3"/>
        </g>
      </g>
    </g>
  </g>
</svg>
