<svg xmlns="http://www.w3.org/2000/svg" xmlns:xlink="http://www.w3.org/1999/xlink" width="24" height="24" viewBox="0 0 24 24">
  <defs>
    <clipPath id="clip-path">
      <rect id="Rectangle_15778" data-name="Rectangle 15778" width="18.748" height="22.934" fill="#878a99" stroke="#878a99" stroke-width="0.5"/>
    </clipPath>
  </defs>
  <g id="Group_40175" data-name="Group 40175" transform="translate(-755 -724)">
    <g id="Rectangle_15779" data-name="Rectangle 15779" transform="translate(755 724)" fill="#fff" stroke="#707070" stroke-width="1" opacity="0">
      <rect width="24" height="24" stroke="none"/>
      <rect x="0.5" y="0.5" width="23" height="23" fill="none"/>
    </g>
    <g id="Group_40174" data-name="Group 40174" transform="translate(760 727)">
      <g id="Group_40173" data-name="Group 40173" transform="translate(-2 -2)" clip-path="url(#clip-path)">
        <path id="Path_82673" data-name="Path 82673" d="M6.968,19.387a1.606,1.606,0,0,1-.791-.718q-2.322-3.531-4.654-7.056A9.166,9.166,0,0,1,.094,8.186,6.358,6.358,0,0,1,.1,5.967,7.027,7.027,0,0,1,2.084,2.116,6.918,6.918,0,0,1,5.519.2a6.984,6.984,0,0,1,5.248.792A7.016,7.016,0,0,1,13.98,5a6.715,6.715,0,0,1-.053,4.342,9.819,9.819,0,0,1-1.115,2.243q-2.332,3.547-4.673,7.089a1.606,1.606,0,0,1-.792.718Zm.187-.81c.07-.092.123-.153.166-.219q2.4-3.636,4.8-7.275a8.787,8.787,0,0,0,.93-1.81,5.962,5.962,0,0,0,.24-3.6,6.236,6.236,0,0,0-2.912-3.932A6.13,6.13,0,0,0,6.917.862a6.105,6.105,0,0,0-2.875.817A6.216,6.216,0,0,0,1.157,5.213a5.7,5.7,0,0,0-.22,2.85,8.189,8.189,0,0,0,1.272,3.045q2.382,3.626,4.779,7.242c.044.067.1.13.167.226" transform="translate(1.773 1.773)" fill="#878a99" stroke="#878a99" stroke-width="0.5"/>
        <path id="Path_82674" data-name="Path 82674" d="M54.88,58.72a3.79,3.79,0,1,1,3.779-3.814A3.788,3.788,0,0,1,54.88,58.72m-.007-6.734a2.946,2.946,0,1,0,2.946,2.951,2.96,2.96,0,0,0-2.946-2.951" transform="translate(-45.94 -45.993)" fill="#878a99" stroke="#878a99" stroke-width="0.5"/>
      </g>
    </g>
  </g>
</svg>
