<svg xmlns="http://www.w3.org/2000/svg" xmlns:xlink="http://www.w3.org/1999/xlink" width="24" height="24" viewBox="0 0 24 24">
  <defs>
    <clipPath id="clip-path">
      <rect id="Rectangle_3516" data-name="Rectangle 3516" width="17.208" height="17.491" fill="#5e84c3"/>
    </clipPath>
  </defs>
  <g id="Group_14533" data-name="Group 14533" transform="translate(-62 -311)">
    <rect id="Rectangle_3504" data-name="Rectangle 3504" width="24" height="24" rx="12" transform="translate(62 311)" fill="#46e607" opacity="0"/>
    <g id="Group_14532" data-name="Group 14532" transform="translate(65.396 313)">
      <g id="Group_14531" data-name="Group 14531" clip-path="url(#clip-path)">
        <path id="Path_42204" data-name="Path 42204" d="M13.808,200.981c.233.012.443.009.651.035a1.127,1.127,0,0,1,.984,1.1c0,.2,0,.409,0,.639h.205c.416,0,.832,0,1.249,0a.276.276,0,0,1,.31.279.284.284,0,0,1-.306.267c-.036,0-.072,0-.109,0H.414c-.278,0-.409-.084-.415-.266s.13-.28.418-.28H1.763c0-.191,0-.369,0-.548a1.154,1.154,0,0,1,1.2-1.213c.137,0,.274,0,.428,0V195.27c.074,0,.132-.01.19-.01.591,0,1.182,0,1.773,0,.154,0,.191.048.191.2q-.007,2.647,0,5.295v.237H11.66v-5.709h2.148Z" transform="translate(0 -185.812)" fill="#5e84c3"/>
        <path id="Path_42205" data-name="Path 42205" d="M57.022,153.862h5.645c.363,0,.489.125.487.491a1.658,1.658,0,0,1-.029.378.734.734,0,0,1-.6.581,1.58,1.58,0,0,1-.324.026q-5.193,0-10.386,0a1.911,1.911,0,0,1-.306-.023.756.756,0,0,1-.615-.587,1.329,1.329,0,0,1-.027-.251c-.008-.528.078-.614.6-.614h5.555" transform="translate(-48.408 -146.42)" fill="#5e84c3"/>
        <path id="Path_42206" data-name="Path 42206" d="M79.577,112h4.489c.378,0,.5.121.5.5a1.684,1.684,0,0,1-.052.481.757.757,0,0,1-.763.5H75.421a.781.781,0,0,1-.851-.857c0-.054,0-.109,0-.163,0-.325.136-.459.464-.46h4.543" transform="translate(-70.963 -106.58)" fill="#5e84c3"/>
        <path id="Path_42207" data-name="Path 42207" d="M100.316,71.9c-1.013,0-2.026-.012-3.039,0-.716.011-1-.541-.865-1.2a.325.325,0,0,1,.307-.264,1.825,1.825,0,0,1,.2-.007h6.8c.432,0,.535.11.54.552a.8.8,0,0,1-.372.79,1.141,1.141,0,0,1-.515.124c-1.019.011-2.038.006-3.057.006" transform="translate(-91.717 -67.018)" fill="#5e84c3"/>
        <path id="Path_42208" data-name="Path 42208" d="M137.184,2.857h-4.361c.028-.052.048-.1.076-.138q.857-1.244,1.718-2.486A.435.435,0,0,1,135.38.22c.587.841,1.167,1.687,1.75,2.531a1.008,1.008,0,0,1,.054.106" transform="translate(-126.399 0)" fill="#5e84c3"/>
      </g>
    </g>
  </g>
</svg>
